<?xml version="1.0" encoding="UTF-8"?>
<svg version="1.1" xmlns="http://www.w3.org/2000/svg" width="1536" height="1024" role="img" aria-label="unemployed.sk logo"><title>unemployed.sk logo</title>
<path d="M0 0 C506.88 0 1013.76 0 1536 0 C1536 337.92 1536 675.84 1536 1024 C1029.12 1024 522.24 1024 0 1024 C0 686.08 0 348.16 0 0 Z " fill="#040403" transform="translate(0,0)"/>
<path d="M0 0 C0.71008209 -0.00335861 1.42016418 -0.00671722 2.15176392 -0.01017761 C4.47228804 -0.01958781 6.7927393 -0.02162536 9.11328125 -0.02270508 C10.74178089 -0.02592346 12.37028025 -0.02928796 13.9987793 -0.03279114 C17.40121125 -0.03875676 20.80361788 -0.04063358 24.20605469 -0.04003906 C28.55011097 -0.03993733 32.89400422 -0.05361224 37.23802185 -0.07081127 C40.59762305 -0.08196532 43.95718516 -0.08395726 47.31680298 -0.08342934 C48.91786259 -0.08460344 50.51892341 -0.08899298 52.1199646 -0.0967617 C54.36394504 -0.10663531 56.6075756 -0.10365536 58.8515625 -0.09765625 C60.76062378 -0.09979378 60.76062378 -0.09979378 62.70825195 -0.10197449 C70.18052117 0.39497656 76.56972058 2.39289515 82.42578125 7.14526367 C91.00005588 18.13792346 87.34325151 34.10783641 85.88671875 47.12573242 C85.72299295 48.64482171 85.56004057 50.16399453 85.39779663 51.6832428 C84.96385827 55.7302746 84.52078566 59.77625545 84.07591248 63.82209778 C83.32907503 70.63724317 82.60023147 77.45435764 81.86813354 84.27109909 C81.58942953 86.86396101 81.30972951 89.45671437 81.0300293 92.04946899 C79.86130151 102.91063956 78.75167817 113.77614404 77.69921875 124.64916992 C77.56635524 126.01535937 77.43345163 127.38154492 77.30050659 128.74772644 C76.8057809 133.84101351 76.31251655 138.93439431 75.83563232 144.02938843 C74.35178148 159.87500135 72.26188046 175.48410283 69.42578125 191.14526367 C69.28924133 191.91277954 69.15270142 192.68029541 69.01202393 193.47106934 C63.95381698 221.89368498 52.17672409 249.33941658 34.42578125 272.14526367 C33.7915625 273.00120117 33.15734375 273.85713867 32.50390625 274.73901367 C16.30802054 295.72888155 -4.01935945 311.63187611 -26.57421875 325.14526367 C-27.20521484 325.52424805 -27.83621094 325.90323242 -28.48632812 326.29370117 C-40.49142424 333.3821708 -53.54205593 338.29908142 -66.57421875 343.14526367 C-67.48558594 343.48477051 -68.39695312 343.82427734 -69.3359375 344.17407227 C-84.78006695 349.79825169 -100.68195209 352.85688136 -116.84912109 355.52709961 C-119.1095517 355.90220842 -121.3683014 356.28793152 -123.62353516 356.69311523 C-153.41748717 362.01214198 -186.78590816 361.15889559 -216.57421875 356.14526367 C-217.60192383 355.97365723 -218.62962891 355.80205078 -219.68847656 355.62524414 C-245.10386879 351.20775052 -272.21118703 343.01060233 -291.57421875 325.14526367 C-292.40824219 324.42725586 -293.24226563 323.70924805 -294.1015625 322.96948242 C-316.79575889 303.21017458 -328.74424995 276.22819509 -330.84033203 246.35229492 C-331.74497648 225.93101739 -329.88378887 205.75805422 -327.60554504 185.48597717 C-326.64537842 176.9117817 -325.76239533 168.33034398 -324.890625 159.74682617 C-324.7416814 158.28183872 -324.59272503 156.81685256 -324.4437561 155.35186768 C-324.21683424 153.12012437 -323.98991586 150.88838073 -323.76309013 148.65662766 C-321.66425278 128.02090645 -319.54207856 107.38678938 -317.26171875 86.77026367 C-317.18663086 86.08589233 -317.11154297 85.401521 -317.03417969 84.69641113 C-316.31454709 78.16042068 -315.51688191 71.64958726 -314.55078125 65.14526367 C-313.85385584 60.38722145 -313.31231169 55.64718586 -312.8984375 50.85620117 C-312.79208984 49.64706055 -312.68574219 48.43791992 -312.57617188 47.19213867 C-312.36595496 44.73743185 -312.16810153 42.28163589 -311.98242188 39.82495117 C-311.022699 29.31851133 -308.53584328 18.57611323 -300.57421875 11.14526367 C-288.62111244 2.50060643 -276.95928556 1.669343 -262.66796875 1.67651367 C-260.93501545 1.66939865 -259.20206446 1.66169773 -257.46911621 1.65344238 C-253.85157709 1.64005617 -250.23425604 1.63840301 -246.61669922 1.64428711 C-242.00350609 1.65018776 -237.3913637 1.6195495 -232.77837372 1.57917023 C-229.20418761 1.55320414 -225.63025191 1.55042365 -222.0559845 1.55406189 C-220.35607761 1.55238 -218.65615797 1.54282811 -216.9563446 1.5249176 C-206.77692197 1.42941944 -198.17056452 1.73405592 -189.94494629 8.48181152 C-183.97192823 14.64100433 -184.36697893 23.31333837 -184.41577148 31.32373047 C-184.6832163 37.77413681 -185.55661607 44.13054854 -186.42425537 50.52362061 C-187.02352325 54.95716242 -187.58949692 59.39496637 -188.15625 63.83276367 C-188.275448 64.76394012 -188.394646 65.69511658 -188.51745605 66.6545105 C-189.79933627 76.76186866 -190.88927115 86.88757162 -191.94921875 97.02026367 C-192.04733856 97.95704956 -192.14545837 98.89383545 -192.24655151 99.85900879 C-192.66531787 103.86159763 -193.08318776 107.86427804 -193.49946594 111.86712646 C-194.37538392 120.27989982 -195.26989409 128.6906026 -196.16974258 137.10084152 C-196.65037618 141.59412469 -197.12988538 146.08752805 -197.60957909 150.58091164 C-198.0033589 154.26876329 -198.39766541 157.95655702 -198.79315186 161.64422607 C-199.16753689 165.13596473 -199.53999637 168.62790413 -199.91115189 172.11998749 C-200.11322928 174.01675748 -200.3172414 175.91332104 -200.52133179 177.80987549 C-204.55483096 207.83504105 -204.55483096 207.83504105 -194.1953125 235.32495117 C-184.54327556 246.16314205 -170.83809437 251.23265829 -156.55322266 252.2956543 C-137.39190136 253.30934446 -119.67104611 249.78887127 -102.57421875 241.14526367 C-101.58164062 240.6837793 -100.5890625 240.22229492 -99.56640625 239.74682617 C-79.85516181 230.03159743 -66.4653311 210.42662031 -59.57421875 190.14526367 C-52.27292274 168.03681346 -49.99190229 145.14990239 -47.88061523 122.08447266 C-47.80046173 121.210448 -47.72030823 120.33642334 -47.63772583 119.43591309 C-47.48773043 117.78705132 -47.3400996 116.13797205 -47.19528198 114.48864746 C-46.82094487 110.33153826 -46.28617034 106.26103935 -45.57421875 102.14526367 C-45.41020728 100.59132725 -45.2663565 99.03510646 -45.14453125 97.47729492 C-45.0372168 96.15870483 -45.0372168 96.15870483 -44.92773438 94.81347656 C-44.85232422 93.87109131 -44.77691406 92.92870605 -44.69921875 91.95776367 C-43.87621565 82.04902962 -42.82721756 72.17854274 -41.67797852 62.30273438 C-41.03784821 56.70069008 -40.47131638 51.1103211 -40.078125 45.48510742 C-39.96404297 43.88397095 -39.96404297 43.88397095 -39.84765625 42.25048828 C-39.71235614 40.25872666 -39.59009231 38.26601162 -39.484375 36.27246094 C-38.72096682 25.06686145 -35.09690717 15.18266855 -26.76171875 7.45776367 C-18.69731842 0.70513271 -10.14180079 0.030375 0 0 Z " fill="#FDFDFD" transform="translate(780.57421875,281.854736328125)"/>
<path d="M0 0 C7.18177156 -0.05148014 14.36349415 -0.08605372 21.54541016 -0.10986328 C23.97934751 -0.11980819 26.41327328 -0.13336887 28.84716797 -0.15087891 C49.38814864 -0.29475887 69.05858846 0.64039919 89.125 5.1875 C89.80934113 5.33961945 90.49368225 5.49173889 91.19876099 5.64846802 C102.2566547 8.12318714 112.68721033 11.2746662 123 16 C124.47754275 16.64656928 125.95541609 17.29238356 127.43359375 17.9375 C156.19724924 30.73671376 178.09356196 51.9315955 189.87548828 81.17285156 C201.9532952 112.67956864 197.92314505 144.43915466 193.94451904 177.11395264 C193.4121684 181.50587087 192.8936525 185.89941515 192.375 190.29296875 C192.27385769 191.14956085 192.17271538 192.00615295 192.06850815 192.88870239 C191.86682108 194.59697823 191.66518965 196.30526065 191.46361542 198.0135498 C191.16543847 200.53523841 190.86536499 203.05669589 190.56500244 205.578125 C189.51722228 214.40019664 188.54311249 223.21929597 187.75234985 232.06866455 C187.00056386 240.34071304 186.0616982 248.59106438 185.125 256.84375 C185.0395631 257.59715919 184.95412621 258.35056839 184.86610031 259.12680817 C184.15699146 265.37463548 183.44318577 271.62192468 182.72924805 277.86920166 C182.19564089 282.53995135 181.66322366 287.21083332 181.13311005 291.8819809 C180.96168217 293.39247275 180.78999731 294.90293546 180.61804962 296.41336823 C179.50957575 306.16582107 178.45650504 315.92026366 177.66113281 325.70422363 C176.70144291 336.83214315 173.70807148 348.24118392 164.9296875 355.77734375 C154.27186979 363.37150306 143.67327665 363.45004369 131.12109375 363.3984375 C129.38192117 363.4004618 127.64274941 363.4033762 125.90357971 363.40713501 C122.27165588 363.41154044 118.63995447 363.40518426 115.00805664 363.39111328 C110.36909277 363.37400961 105.73064926 363.3838813 101.09170437 363.40183067 C97.50474677 363.41270594 93.91791119 363.40920527 90.33094978 363.4014473 C88.62104288 363.39945629 86.91112465 363.40186564 85.201231 363.40888596 C82.80630284 363.41656395 80.4122011 363.40480931 78.01733398 363.38818359 C76.97362389 363.39729263 76.97362389 363.39729263 75.90882874 363.40658569 C68.45883717 363.31148664 61.96514668 360.89461265 56.54296875 355.7578125 C49.98734314 348.28937826 50.23532185 339.45681797 50.76806641 330.02539062 C51.40356463 321.73581803 52.47535778 313.48804173 53.50515747 305.24006653 C54.86851748 294.3143212 56.04370122 283.37359899 57.18283081 272.4223938 C58.82910795 256.60479577 60.58640768 240.81487186 62.61889648 225.04223633 C63.87814575 215.20134139 64.93637712 205.34855116 65.91967773 195.4765625 C66.82751097 186.42454412 67.88607226 177.39724116 69.08618164 168.37915039 C70.3191322 158.6805474 70.74545567 149.46045551 68 140 C67.74283203 139.00033203 67.74283203 139.00033203 67.48046875 137.98046875 C65.25028221 130.68560051 59.95332683 124.29153785 53.25 120.625 C38.01657349 114.17667577 22.46585453 114.38967387 7 120 C-1.3383825 123.60088225 -14.69696834 130.39393668 -19 139 C-19.66 139 -20.32 139 -21 139 C-20.81244141 138.39341553 -20.62488281 137.78683105 -20.43164062 137.16186523 C-18.60222173 131.16729269 -16.96326045 125.15627174 -15.5 119.0625 C-15.30019531 118.26521484 -15.10039063 117.46792969 -14.89453125 116.64648438 C-11.14899915 101.07986211 -9.42142566 85.0719084 -7.625 69.1875 C-7.41466147 67.35373772 -7.20412618 65.51999801 -6.9934082 63.6862793 C-4.56532608 42.46835079 -2.27706853 21.23457926 0 0 Z " fill="#F27C2B" transform="translate(886,369)"/>
<path d="M0 0 C1.18564457 3.78519089 0.52556641 6.40167049 -0.4055481 10.2331543 C-1.63843068 15.97154265 -2.16556721 21.83066977 -2.83984375 27.65625 C-3.00875274 29.08570089 -3.17807831 30.51510262 -3.34779358 31.94445801 C-3.79289366 35.70231167 -4.23254684 39.46078244 -4.67095947 43.21942139 C-5.10758042 46.95524496 -5.54907134 50.69049183 -5.99023438 54.42578125 C-6.16381043 55.89745827 -6.33736398 57.36913795 -6.51089478 58.84082031 C-6.85417734 61.75168061 -7.19799761 64.66247679 -7.54208374 67.57324219 C-8.31841945 74.14981156 -9.0847562 80.72691518 -9.81689453 87.30859375 C-9.94447647 88.43108521 -10.07205841 89.55357666 -10.20350647 90.71008301 C-10.4343791 92.74344738 -10.65935608 94.77749629 -10.87644958 96.81237793 C-12.22710612 108.56585155 -14.44955915 121.21846615 -23 130 C-32.93053996 137.70845874 -42.12298649 140.09595922 -54.66015625 140.16113281 C-55.39120575 140.16609772 -56.12225525 140.17106262 -56.87545776 140.17617798 C-59.27114838 140.1906714 -61.66677292 140.19757803 -64.0625 140.203125 C-65.29747726 140.20736607 -65.29747726 140.20736607 -66.55740356 140.21169281 C-70.90969153 140.22662911 -75.26194678 140.23589515 -79.61425781 140.24023438 C-84.09638998 140.24572793 -88.57821975 140.26979037 -93.06025696 140.29820633 C-96.52104563 140.31686847 -99.98176171 140.32204009 -103.44259644 140.32357025 C-105.09473331 140.32658643 -106.74686921 140.33457982 -108.3989563 140.34775543 C-110.71281804 140.36490043 -113.02594345 140.36291611 -115.33984375 140.35644531 C-117.31005493 140.36191376 -117.31005493 140.36191376 -119.32006836 140.36749268 C-126.99471746 139.60107155 -132.99004913 135.78852432 -138 130 C-142.68078671 121.87103375 -141.56849813 111.92175192 -140.08203125 103.03515625 C-138.92755934 95.77537367 -138.12798343 88.49835446 -137.375 81.1875 C-137.2409375 79.91068359 -137.106875 78.63386719 -136.96875 77.31835938 C-136.64304395 74.21251959 -136.32016955 71.10641454 -136 68 C-134.77821045 67.72905518 -134.77821045 67.72905518 -133.53173828 67.45263672 C-83.54600371 56.29063674 -36.76348408 36.76348408 0 0 Z " fill="#F27C2B" transform="translate(814,590)"/>
</svg>
